# xmcd
#
# Track frame offsets:
# 150
# 18162
# 38625
# 53362
#
# Disc length: 952 seconds
#
#
# Revision: 0
# Processed by: cddbd v1.4PL0 Copyright (c) Steve Scherf et al.
# Submitted via: FreeRIP 2.40 
#
DISCID=1e03b604
DTITLE=деспоима окулпиоу - баке лоусийг
DYEAR=1900
DGENRE=New Wave
TTITLE0=баке лоусийг
TTITLE1=ма' соум аккиыс (CU' MME)
TTITLE2=стацома-стацома)
TTITLE3=баке лоусийг(TANGO MIX)
EXTD=
EXTT0=
EXTT1=
EXTT2=
EXTT3=
PLAYORDER=
